<?xml version="1.0" encoding="utf-8"?>
<!DOCTYPE svg PUBLIC "-//W3C//DTD SVG 20010904//EN" "http://www.w3.org/TR/2001/REC-SVG-20010904/DTD/svg10.dtd">
<svg version="1.0" xmlns="http://www.w3.org/2000/svg" width="1080px" height="1080px" viewBox="0 0 1080 1080" preserveAspectRatio="xMidYMid meet">
 <g fill="#0f4e6e">
  <path d="M510.5 1049.8 c-172.9 -9.2 -329.9 -106.8 -416 -258.3 -88.4 -155.7 -88.1 -348.1 0.7 -504 36.8 -64.6 88.6 -121.4 150.3 -165.1 37 -26.2 83.8 -50.1 128.3 -65.5 70.7 -24.4 150.5 -32.9 225.2 -23.9 162.1 19.6 303.1 113.1 383.8 254.5 66.6 116.8 84.1 255.8 48.6 387 -30.7 113.6 -100.8 213.7 -198.2 282.8 -78.6 55.8 -171.1 87.5 -270.2 92.7 -21.8 1.1 -29.4 1.1 -52.5 -0.2z m-145.3 -271.9 l0.3 -137.2 62 -14.8 c43.8 -10.5 63.4 -14.8 66.8 -14.6 l4.9 0.2 51.9 109.5 c39.5 83.4 51.9 110.4 51.9 113.2 l0 3.8 -79.1 0.2 -79.1 0.3 -16.4 36.5 c-9 20 -16.7 37.2 -17 38.2 -0.5 1.7 8.3 1.8 201.1 1.8 l201.6 0 -0.5 -7.2 c-0.3 -4 -0.8 -18.8 -1.1 -32.8 -0.3 -14 -2.1 -86 -4 -160 -4.8 -188.2 -5.3 -207.2 -8 -345.5 -4.2 -205.9 -4.6 -225.8 -5.1 -231.2 l-0.5 -5.3 -192 0 c-105.5 0 -191.9 0.4 -191.9 0.8 0 0.4 7.6 17.6 16.8 38.2 l16.8 37.5 124.1 0.3 124.1 0.2 0.7 24.8 c1.7 61.1 5.3 262.8 4.7 263.3 -0.6 0.6 -46.1 14.5 -107.6 33 -12.6 3.8 -24.1 6.9 -25.6 6.9 -2.5 0 -3.1 -0.9 -8.5 -12.7 -3.1 -7.1 -26.5 -58.7 -52 -114.8 -25.5 -56.1 -52.6 -115.9 -60.4 -133 l-14 -31 -32.3 0.3 c-17.8 0.1 -55.1 0.5 -83 0.8 l-50.8 0.6 0 333.4 0 333.4 50.5 0 50.5 0 0.2 -137.1z"/>
  <path d="M682.3 792.8 c-11.1 -23.3 -36.9 -77.2 -57.3 -119.8 -28.5 -59.7 -37 -78.3 -37 -81.2 0 -2.1 0.2 -3.8 0.3 -3.8 0.2 0 24.1 -5.6 53.1 -12.5 29 -6.9 54.1 -12.5 55.6 -12.5 2.5 0 3 0.5 3.4 3.3 0.3 1.7 1.4 33.4 2.6 70.2 1.2 36.9 3 92.4 4 123.5 1.1 31.1 2 60.7 2 65.8 l0 9.2 -3.3 0 -3.2 0 -20.2 -42.2z"/>
  <path d="M365.7 597.3 c-0.4 -0.3 -0.7 -61.8 -0.7 -136.5 l0 -135.8 3.5 0 c3 0 3.6 0.4 5.3 4.3 1.1 2.3 7.9 17.5 15.1 33.7 7.3 16.2 15.9 35.4 19.1 42.5 7.8 17.4 42.3 94.5 57.2 127.8 8.6 19.3 11.8 27.6 11.6 29.8 l-0.3 3.1 -52.5 15.9 c-49.5 15 -56.7 16.9 -58.3 15.2z"/>
 </g>
 <g fill="#7b7b7b">
  <path d="M405 917.7 c0 -0.2 8.3 -18.8 18.4 -41.3 l18.4 -40.9 79.2 -0.3 c62.7 -0.2 79.1 -0.5 78.7 -1.5 -0.3 -0.9 10.4 -1.2 51.2 -1.2 l51.6 0 0.3 -2.5 0.4 -2.4 1.4 2.4 c1.3 2.2 1.4 0 0.9 -19.5 -0.3 -12.1 -0.7 -27.4 -1 -34 -0.3 -6.6 -0.7 -18.7 -1 -27 -0.3 -8.2 -0.8 -23.3 -1.1 -33.5 -0.3 -10.2 -1.6 -47.8 -2.8 -83.7 -1.1 -35.8 -2.3 -65.4 -2.6 -65.6 -0.5 -0.5 -14.5 2.7 -88.8 20.4 -15.6 3.7 -17.3 4.3 -16.9 6 0.4 1.4 0 1.9 -1.7 1.9 -1.7 0 -2.7 -1.4 -5.1 -6.7 -1.5 -3.8 -4.9 -11.3 -7.5 -16.8 -9 -19.5 -15 -34 -15 -36.6 0 -3.4 1.2 -4.4 2.4 -2 1.1 1.8 1.2 1.8 7.1 0.1 66 -19.9 123.1 -37.4 123.6 -37.9 0.6 -0.5 -3 -196.4 -4.6 -256.8 l-0.7 -25.3 -124.1 -0.2 -124.1 -0.3 -18.2 -40.5 c-10.1 -22.3 -18.3 -40.8 -18.3 -41.2 -0.1 -0.5 88.3 -0.8 196.3 -0.8 l196.5 0 0.5 5.3 c0.5 5.2 0.9 25.1 4.6 206.2 3 151.8 3.8 186.8 7.5 332 1.9 74.8 3.9 153.8 4.5 175.5 0.5 21.7 1.2 46.1 1.5 54.3 l0.6 14.7 -206 0 c-113.4 0 -206.1 -0.1 -206.1 -0.3z"/>
 </g>
 <g fill="#bbbbbb">
  <path d="M261 581.6 l0 -336.4 50.8 -0.6 c27.9 -0.3 66.6 -0.7 86 -0.8 l35.3 -0.3 14 31 c7.8 17.1 35 77.1 60.6 133.5 44.9 98.8 67.2 148.4 67.7 150.5 0.2 0.6 1.8 4.2 3.6 8 1.8 3.9 6 13.1 9.5 20.5 3.4 7.4 18.8 39.8 34.2 72 69.8 145.7 83.4 174.4 82.9 175.7 -0.5 1.1 -9.4 1.3 -52.6 1.1 l-52.1 -0.3 -52.4 -110.5 c-46 -97.2 -52.6 -110.5 -54.7 -110.8 -2 -0.3 -3.7 -3.5 -12.9 -25.2 -9.6 -22.4 -10.4 -24.9 -8.7 -25.3 2.2 -0.6 3.5 2.7 -11.5 -30.7 -21.6 -48.5 -50 -111.9 -55.7 -124.5 -3.2 -7.1 -11.8 -26.3 -19.1 -42.5 -7.2 -16.2 -14.1 -31.5 -15.3 -34 l-2.1 -4.5 -0.3 132.5 c-0.1 72.9 0 133.1 0.3 133.7 0.2 0.7 1 1 1.7 0.8 2 -0.8 1.2 47.7 -0.8 48.8 -1.2 0.7 -1.4 20.5 -1.4 137.7 l0 137 -53.5 0 -53.5 0 0 -336.4z"/>
 </g>
 <g fill="#0f0f0f">
  <path d="M368 619.5 l0 -24.3 3.3 -1.1 c10.3 -3.3 99.5 -30 101.1 -30.3 1.6 -0.2 3.6 3.7 12.6 24.7 8.7 20.3 10.4 25.1 9.1 25.3 -0.9 0.2 -27 6.5 -58.1 13.9 -31.1 7.4 -59.1 14 -62.2 14.8 l-5.8 1.3 0 -24.3z"/>
 </g>
</svg>